<?xml version="1.0" encoding="UTF-8" standalone="no"?>
<svg
   xmlns:dc="http://purl.org/dc/elements/1.1/"
   xmlns:cc="http://creativecommons.org/ns#"
   xmlns:rdf="http://www.w3.org/1999/02/22-rdf-syntax-ns#"
   xmlns:svg="http://www.w3.org/2000/svg"
   xmlns="http://www.w3.org/2000/svg"
   version="1.1"
   id="svg2"
   xml:space="preserve"
   width="219.28239"
   height="121.68133"
   viewBox="0 0 219.28239 121.68133"><metadata
     id="metadata8"><rdf:RDF><cc:Work
         rdf:about=""><dc:format>image/svg+xml</dc:format><dc:type
           rdf:resource="http://purl.org/dc/dcmitype/StillImage" /></cc:Work></rdf:RDF></metadata><defs
     id="defs6" /><g
     id="g10"
     transform="matrix(1.3333333,0,0,-1.3333333,1.3333333,120.348)"><g
       id="g12"><g
         id="g14"><path
           d="M 55.9559,19.7538 V 47.596 c 0,2.4837 1.2682,3.7516 3.7519,3.7516 h 43.0467 c 2.4208,0 3.7516,-1.3308 3.7516,-3.7516 V 19.7538 c 0,-7.6224 -5.015,-12.6374 -12.6374,-12.6374 H 68.5936 c -7.6224,0 -12.6377,5.015 -12.6377,12.6374 z m 9.4782,47.5883 c 0,20.8276 31.5938,20.8596 31.5938,0 V 57.6663 H 65.4341 Z m -6.3187,1.9746 V 57.6663 c -5.4247,0 -9.4782,-4.4368 -9.4782,-8.6882 V 17.7792 c 0,-6.2909 4.7214,-12.6638 10.1988,-15.2737 1.6832,-0.8022 4.407,-1.7081 6.783,-1.7081 h 29.2243 c 2.3746,0 5.101,0.9059 6.7828,1.7081 3.4594,1.6495 6.84,5.0262 8.4909,8.4907 0.8022,1.6835 1.7079,4.4073 1.7079,6.783 v 31.1989 c 0,4.2514 -4.0536,8.6882 -9.478,8.6882 v 11.2553 c 0,5.6741 -3.1864,11.2025 -6.0709,14.0703 -1.0596,1.0534 -2.8812,2.5381 -4.2049,3.2987 -5.3867,3.0948 -8.178,2.9696 -14.012,2.9696 -9.9958,0 -19.9437,-9.9128 -19.9437,-19.9435"
           style="fill:#ffffff;fill-opacity:1;fill-rule:evenodd;stroke:none"
           id="path16" /><path
           d="m 74.9123,35.9456 c 0,-5.3884 3.0654,-4.5732 3.1748,-6.6983 L 78.061,19.9406 c 0.0156,-4.5346 6.2578,-4.3552 6.3411,-0.1987 l -0.0258,9.1091 c -0.0014,1.622 0.2024,1.2592 1.1418,2.0177 2.9937,2.418 2.8205,8.2282 -1.2529,10.2833 -4.6868,2.3643 -9.3529,-1.1574 -9.3529,-5.2064"
           style="fill:#ffffff;fill-opacity:1;fill-rule:evenodd;stroke:none"
           id="path18" /></g><g
         id="g20"><g
           id="g22"><path
             d="M 22.4768,9.726 10.0264,27.9887 c -1.1109,1.6288 -0.8455,3.0283 0.783,4.1392 l 28.2367,19.2492 c 1.5874,1.0828 3.0555,0.8048 4.1386,-0.7835 l 9.5306,-13.9813 v 8.9064 l -6.004,8.8076 c -1.9015,2.7887 -6.5438,3.8863 -10.103,1.4598 l -5.0329,7.3837 c -2.5376,3.721 -7.0997,5.923 -10.2739,6.5143 -1.1653,0.2166 -3.0248,0.3756 -4.2332,0.2832 C 12.1516,69.588 10.3765,68.2583 6.5492,65.6487 -0.0074,61.1799 -2.0999,50.2288 2.3862,43.6493 L 7.5954,36.0074 C 4.0371,33.5812 3.3625,28.8584 5.2634,26.0697 L 19.2149,5.6049 c 2.8134,-4.1261 8.7605,-6.1954 13.5199,-5.4578 1.4626,0.2262 3.6547,0.8501 5.2126,1.9128 l 14.7679,10.0673 v 6.0715 L 36.4178,7.088 c -5,-3.4083 -10.5327,-2.3624 -13.941,2.638 z M 7.4134,45.1797 C -1.9003,58.841 18.8096,72.9901 28.1373,59.3082 L 32.4641,52.9605 11.7403,38.8321 Z"
             style="fill:#ffffff;fill-opacity:0.25;fill-rule:evenodd;stroke:none"
             id="path24" /></g><g
           id="g26"><path
             d="M 27.6707,28.8235 C 30.0801,25.289 31.7262,27.195 32.7484,25.85 l 4.1442,-6.1166 c 2.0379,-2.9676 6.0528,-0.0587 4.2483,2.7054 l -4.0901,5.9641 c -0.7262,1.0624 -0.43,0.9161 -0.1531,1.8337 0.8825,2.9242 -1.83,6.658 -5.4204,6.1849 -4.1312,-0.5451 -5.6177,-4.9419 -3.8066,-7.598"
             style="fill:#ffffff;fill-opacity:0.25;fill-rule:evenodd;stroke:none"
             id="path28" /></g></g><g
         id="g30"><g
           id="g32"><path
             d="m 139.9853,9.726 12.45,18.2627 c 1.1109,1.6288 0.8456,3.0283 -0.7829,4.1392 l -28.2367,19.2492 c -1.5874,1.0828 -3.0555,0.8048 -4.1383,-0.7835 l -9.531,-13.9813 v 8.9064 l 6.0041,8.8076 c 1.9015,2.7887 6.5438,3.8863 10.1032,1.4598 l 5.0327,7.3837 c 2.5375,3.721 7.0996,5.923 10.2739,6.5143 1.1656,0.2166 3.0251,0.3756 4.2335,0.2832 4.9167,-0.3793 6.6915,-1.709 10.5188,-4.3186 6.5568,-4.4688 8.6491,-15.4199 4.1632,-21.9994 l -5.2095,-7.6419 c 3.5584,-2.4262 4.233,-7.149 2.3321,-9.9377 L 143.2468,5.6049 c -2.8131,-4.1261 -8.7602,-6.1954 -13.5198,-5.4578 -1.4627,0.2262 -3.6544,0.8501 -5.2126,1.9128 l -14.768,10.0673 v 6.0715 L 126.0442,7.088 c 4.9998,-3.4083 10.5324,-2.3624 13.9411,2.638 z m 15.063,35.4537 c 9.3138,13.6613 -11.3958,27.8104 -20.7238,14.1285 l -4.3268,-6.3477 20.7238,-14.1284 z"
             style="fill:#ffffff;fill-opacity:0.25;fill-rule:evenodd;stroke:none"
             id="path34" /></g><g
           id="g36"><path
             d="m 134.7914,28.8235 c -2.4098,-3.5345 -4.0558,-1.6285 -5.078,-2.9735 l -4.1443,-6.1166 c -2.0378,-2.9676 -6.0525,-0.0587 -4.2482,2.7054 l 4.0901,5.9641 c 0.7262,1.0624 0.43,0.9161 0.1533,1.8337 -0.8827,2.9242 1.8298,6.658 5.4201,6.1849 4.1313,-0.5451 5.6177,-4.9419 3.807,-7.598"
             style="fill:#ffffff;fill-opacity:0.25;fill-rule:evenodd;stroke:none"
             id="path38" /></g></g></g></g></svg>
