<?xml version="1.0" encoding="UTF-8" standalone="no"?>
<svg
   xmlns:dc="http://purl.org/dc/elements/1.1/"
   xmlns:cc="http://creativecommons.org/ns#"
   xmlns:rdf="http://www.w3.org/1999/02/22-rdf-syntax-ns#"
   xmlns:svg="http://www.w3.org/2000/svg"
   xmlns="http://www.w3.org/2000/svg"
   version="1.1"
   id="svg2"
   xml:space="preserve"
   width="782.68481"
   height="234.02893"
   viewBox="0 0 782.68481 234.02893"><metadata
     id="metadata8"><rdf:RDF><cc:Work
         rdf:about=""><dc:format>image/svg+xml</dc:format><dc:type
           rdf:resource="http://purl.org/dc/dcmitype/StillImage" /></cc:Work></rdf:RDF></metadata><defs
     id="defs6" /><g
     id="g10"
     transform="matrix(1.3333333,0,0,-1.3333333,1.3333333,232.6956)"><path
       d="m 44.6094,121.5258 c -19.1696,0 -34.765,-15.5951 -34.765,-34.7667 0,-19.1667 15.5954,-34.7618 34.765,-34.7618 19.1701,0 34.7669,15.5951 34.7669,34.7618 0,19.1716 -15.5968,34.7667 -34.7669,34.7667 z m 0,-78.3831 c -24.0497,0 -43.619,19.5665 -43.619,43.6164 0,24.0546 19.5693,43.6227 43.619,43.6227 24.0497,0 43.6209,-19.5681 43.6209,-43.6227 0,-24.0499 -19.5712,-43.6164 -43.6209,-43.6164"
       style="fill:#ffffff;fill-opacity:1;fill-rule:nonzero;stroke:none"
       id="path12" /><path
       d="m 81.2577,68.4241 h -37.863 v 8.8543 h 37.863 z"
       style="fill:#ffffff;fill-opacity:1;fill-rule:nonzero;stroke:none"
       id="path14" /><path
       d="M 102.5884,83.0058 H 43.3947 v 8.856 h 59.1937 z"
       style="fill:#ffffff;fill-opacity:1;fill-rule:nonzero;stroke:none"
       id="path16" /><path
       d="m 139.2375,86.7614 c 0,24.052 -19.5678,43.6212 -43.6209,43.6212 v -8.854 c 19.1695,0 34.7649,-15.597 34.7649,-34.7672 0,-19.1696 -15.5954,-34.7686 -34.7649,-34.7686 v -8.854 c 24.0531,0 43.6209,19.5712 43.6209,43.6226"
       style="fill:#ffffff;fill-opacity:1;fill-rule:nonzero;stroke:none"
       id="path18" /><path
       d="m 230.5086,92.8324 h 43.4369 V 79.7298 H 230.5086 Z M 204.6572,44.1992 v 82.5718 c 0,1.7907 1.4527,3.2403 3.2402,3.2403 h 69.5903 v -14.9882 h -54.7169 c -1.7909,0 -3.2402,-1.451 -3.2402,-3.2417 V 44.1992 Z"
       style="fill:#ffffff;fill-opacity:1;fill-rule:nonzero;stroke:none"
       id="path20" /><path
       d="m 347.9525,59.1914 c 3.9347,0 7.5537,0.7069 10.8595,2.1217 3.3055,1.4151 6.156,3.3673 8.5575,5.8439 2.3995,2.4803 4.269,5.4476 5.6086,8.9124 1.3346,3.46 2.0016,7.1995 2.0016,11.2133 0,4.0153 -0.667,7.7304 -2.0016,11.1543 -1.3396,3.4234 -3.2091,6.3536 -5.6086,8.7942 -2.4015,2.439 -5.252,4.3478 -8.5575,5.7255 -3.3058,1.3759 -6.9248,2.0667 -10.8595,2.0667 h -20.8919 c -3.8597,0 -7.4189,-0.6908 -10.6847,-2.0667 -3.2641,-1.3777 -6.0772,-3.2865 -8.4373,-5.7255 -2.3621,-2.4406 -4.2111,-5.3518 -5.5474,-8.7358 -1.3408,-3.3845 -2.0063,-7.1203 -2.0063,-11.2127 0,-4.0138 0.6655,-7.7533 2.0063,-11.2133 1.3363,-3.4648 3.1853,-6.4321 5.5474,-8.9124 2.3601,-2.4766 5.1732,-4.4288 8.4373,-5.8439 3.2658,-1.4148 6.825,-2.1217 10.6847,-2.1217 z M 327.0606,44.1998 c -5.9814,0 -11.5078,1.1216 -16.5884,3.3656 -5.072,2.2399 -9.4802,5.3104 -13.2196,9.204 -3.7341,3.8951 -6.6487,8.5196 -8.7307,13.8714 -2.0858,5.3498 -3.1286,11.1339 -3.1286,17.3517 0,6.2932 1.0428,12.0393 3.1286,17.2318 2.082,5.1922 4.9966,9.6208 8.7307,13.2781 3.7394,3.6603 8.1476,6.4939 13.2196,8.4991 5.0806,2.0066 10.607,3.0101 16.5884,3.0101 h 20.8919 c 6.2161,0 11.8987,-1.0239 17.0563,-3.0685 5.1531,-2.048 9.58,-4.9161 13.2818,-8.6142 3.696,-3.7032 6.5675,-8.1301 8.6136,-13.2812 2.0452,-5.1545 3.0705,-10.8422 3.0705,-17.0552 0,-6.2178 -1.0429,-12.0019 -3.1283,-17.3517 -2.0892,-5.3518 -4.997,-9.9763 -8.7344,-13.8714 -3.7409,-3.8936 -8.1666,-6.9641 -13.2795,-9.204 -5.1165,-2.244 -10.7425,-3.3656 -16.88,-3.3656 z"
       style="fill:#ffffff;fill-opacity:1;fill-rule:nonzero;stroke:none"
       id="path22" /><path
       d="M 481.8053,44.1998 460.0862,68.042 h -32.1077 v 13.2194 h 35.7667 c 5.4306,0 9.5196,1.4751 12.276,4.4271 2.7533,2.9523 4.1323,7.2198 4.1323,12.8078 0,5.5868 -1.4371,9.7381 -4.3103,12.4517 -2.8695,2.717 -6.9044,4.0754 -12.098,4.0754 H 417.0025 V 44.1998 h -14.8714 v 85.8115 h 61.6141 c 4.8767,0 9.2435,-0.7276 13.1031,-2.1818 3.854,-1.4582 7.1201,-3.5436 9.7977,-6.2572 2.6737,-2.7156 4.7203,-6.0018 6.1336,-9.8561 1.4202,-3.8557 2.1286,-8.1836 2.1286,-12.9829 0,-7.1632 -1.5557,-13.161 -4.6636,-18 -3.1119,-4.8408 -7.4563,-8.3245 -13.0428,-10.448 l 25.8486,-26.0855 z"
       style="fill:#ffffff;fill-opacity:1;fill-rule:nonzero;stroke:none"
       id="path24" /><path
       d="m 536.4561,44.1998 v 70.8236 h -32.578 v 14.9879 h 80.1456 v -14.9879 h -32.578 V 44.1998 Z"
       style="fill:#ffffff;fill-opacity:1;fill-rule:nonzero;stroke:none"
       id="path26" /><path
       d="M 171.464,130.0119 V 43.1558 h -3.8086 v 86.8561 z"
       style="fill:#ffffff;fill-opacity:1;fill-rule:nonzero;stroke:none"
       id="path28" /></g></svg>
